<?xml version="1.0" encoding="UTF-8"?>
<svg id="Layer_2" data-name="Layer 2" xmlns="http://www.w3.org/2000/svg" viewBox="0 0 903.39 223.83">
  <defs>
    <style>
      .cls-1 {
        fill: #80baa8;
        stroke-width: 0px;
      }
    </style>
  </defs>
  <g id="Layer_1-2" data-name="Layer 1">
    <g>
      <path class="cls-1" d="M57.83,61.41c10.06-5.08,21.26-7.62,33.62-7.62,14.54,0,27.69,3.49,39.45,10.46,11.75,6.98,21.02,16.88,27.79,29.74,6.77,12.85,10.16,27.54,10.16,44.08s-3.39,31.33-10.16,44.38c-6.78,13.05-16.09,23.21-27.94,30.48-11.86,7.28-24.95,10.91-39.3,10.91-12.75,0-24.06-2.49-33.92-7.47-9.86-4.98-17.68-11.36-23.46-19.13v23.91H0V0h34.07v80.99c5.78-7.97,13.7-14.49,23.76-19.58ZM127.16,108.63c-4.68-8.26-10.86-14.54-18.53-18.83-7.67-4.28-15.89-6.42-24.65-6.42s-16.69,2.19-24.36,6.58c-7.67,4.38-13.85,10.76-18.53,19.13-4.68,8.37-7.02,18.23-7.02,29.59s2.34,21.27,7.02,29.74c4.68,8.47,10.86,14.9,18.53,19.27,7.67,4.38,15.79,6.58,24.36,6.58s16.98-2.24,24.65-6.72c7.67-4.48,13.84-11.01,18.53-19.57,4.68-8.56,7.02-18.53,7.02-29.88s-2.34-21.17-7.02-29.44Z"/>
      <path class="cls-1" d="M327.83,56.48v164.66h-34.07v-19.42c-5.38,6.78-12.4,12.1-21.07,15.99-8.67,3.88-17.88,5.83-27.64,5.83-12.95,0-24.56-2.69-34.82-8.07-10.26-5.38-18.33-13.35-24.21-23.91-5.88-10.56-8.82-23.31-8.82-38.25V56.48h33.77v91.75c0,14.75,3.68,26.05,11.06,33.92,7.37,7.87,17.43,11.8,30.18,11.8s22.86-3.93,30.33-11.8c7.47-7.87,11.21-19.17,11.21-33.92V56.48h34.07Z"/>
      <path class="cls-1" d="M466.64,61.86c10.26,5.38,18.27,13.35,24.06,23.91,5.78,10.56,8.67,23.31,8.67,38.25v97.12h-33.77v-92.04c0-14.74-3.69-26.05-11.06-33.92-7.37-7.87-17.44-11.8-30.18-11.8s-22.86,3.94-30.33,11.8c-7.47,7.87-11.21,19.18-11.21,33.92v92.04h-34.07V56.48h34.07v18.83c5.58-6.77,12.7-12.05,21.37-15.84,8.67-3.78,17.88-5.68,27.64-5.68,12.95,0,24.55,2.69,34.82,8.07Z"/>
      <path class="cls-1" d="M517.73,94.14c6.87-12.75,16.24-22.66,28.09-29.74,11.85-7.07,25.05-10.61,39.6-10.61,10.76,0,21.37,2.34,31.83,7.02,10.46,4.68,18.78,10.91,24.95,18.68V0h34.37v221.14h-34.37v-24.8c-5.58,7.97-13.3,14.55-23.16,19.72-9.86,5.18-21.17,7.77-33.92,7.77-14.35,0-27.45-3.63-39.3-10.91-11.85-7.27-21.22-17.43-28.09-30.48-6.87-13.05-10.31-27.84-10.31-44.38s3.44-31.18,10.31-43.93ZM635.18,109.08c-4.68-8.37-10.81-14.74-18.38-19.13-7.57-4.38-15.74-6.58-24.5-6.58s-16.94,2.14-24.51,6.42c-7.57,4.29-13.7,10.56-18.38,18.83-4.68,8.27-7.02,18.08-7.02,29.44s2.34,21.32,7.02,29.88c4.68,8.57,10.86,15.09,18.53,19.57,7.67,4.48,15.79,6.72,24.36,6.72s16.93-2.19,24.5-6.58c7.57-4.38,13.7-10.8,18.38-19.27,4.68-8.47,7.02-18.38,7.02-29.74s-2.34-21.22-7.02-29.59Z"/>
      <path class="cls-1" d="M731.55,0v221.14h-34.07V0h34.07Z"/>
      <path class="cls-1" d="M902.19,151.51h-125.81c1,13.15,5.87,23.71,14.64,31.68,8.77,7.97,19.52,11.95,32.28,11.95,18.33,0,31.27-7.67,38.85-23.01h36.76c-4.98,15.14-14,27.55-27.04,37.21-13.05,9.67-29.24,14.49-48.56,14.49-15.74,0-29.84-3.53-42.29-10.61-12.45-7.07-22.22-17.03-29.29-29.88-7.07-12.85-10.61-27.74-10.61-44.68s3.44-31.83,10.31-44.68c6.87-12.85,16.53-22.76,28.99-29.74,12.45-6.97,26.75-10.46,42.88-10.46s29.38,3.39,41.54,10.16c12.15,6.78,21.62,16.29,28.39,28.54,6.77,12.25,10.16,26.35,10.16,42.29,0,6.18-.4,11.76-1.2,16.74ZM867.82,124.02c-.2-12.55-4.68-22.61-13.45-30.18-8.77-7.57-19.63-11.36-32.57-11.36-11.76,0-21.82,3.74-30.18,11.21-8.37,7.47-13.35,17.58-14.94,30.33h91.15Z"/>
    </g>
  </g>
</svg>